[h264 @ 0x561b9606ce00] Reinit context to 640x352, pix_fmt: yuv420p
Input #0, mov,mp4,m4a,3gp,3g2,mj2, from '/var/www/html/project/media/video/original/WhatsApp_Video_2022-08-09_at_20.52.33_upFmSb5.mp4':
  Metadata:
    major_brand     : mp42
    minor_version   : 0
    compatible_brands: mp42isom
  Duration: 00:01:04.38, start: 0.000000, bitrate: 2105 kb/s
    Stream #0:0(und): Video: h264 (Baseline), 1 reference frame (avc1 / 0x31637661), yuv420p(left), 640x352, 1786 kb/s, 29.97 fps, 29.97 tbr, 30k tbn, 60k tbc (default)
    Stream #0:1(und): Audio: aac (LC) (mp4a / 0x6134706D), 48000 Hz, stereo, fltp, 317 kb/s (default)
[h264 @ 0x561b960b65c0] Reinit context to 1280x720, pix_fmt: yuv420p
Input #1, mov,mp4,m4a,3gp,3g2,mj2, from '/var/www/html/project/static/images/templates/Codino.mp4':
  Metadata:
    major_brand     : mp42
    minor_version   : 1
    compatible_brands: isommp41mp42
    creation_time   : 2021-07-11T07:02:58.000000Z
  Duration: 00:00:02.00, start: 0.000000, bitrate: 1007 kb/s
    Stream #1:0(ita): Audio: aac (LC) (mp4a / 0x6134706D), 44100 Hz, stereo, fltp, 102 kb/s (default)
    Metadata:
      creation_time   : 2021-07-11T07:02:58.000000Z
      handler_name    : Core Media Audio
    Stream #1:1(und): Video: h264 (High), 1 reference frame (avc1 / 0x31637661), yuv420p(tv, bt709, progressive, left), 1280x720 [SAR 1:1 DAR 16:9], 813 kb/s, 25 fps, 25 tbr, 25k tbn, 50k tbc (default)
    Metadata:
      creation_time   : 2021-07-11T07:02:58.000000Z
      handler_name    : Core Media Video
[Parsed_scale_0 @ 0x561b96145040] w:1280 h:720 flags:'bilinear' interl:0
[Parsed_scale_2 @ 0x561b96072e80] w:1280 h:720 flags:'bilinear' interl:0
Stream mapping:
  Stream #0:0 (h264) -> scale
  Stream #0:1 (aac) -> concat:in0:a0
  Stream #1:0 (aac) -> concat:in1:a0
  Stream #1:1 (h264) -> scale
  concat:out:v0 -> Stream #0:0 (libx264)
  concat:out:a0 -> Stream #0:1 (aac)
Press [q] to stop, [?] for help
[h264 @ 0x561b960b2800] Reinit context to 640x352, pix_fmt: yuv420p
[h264 @ 0x561b964f65c0] Reinit context to 1280x720, pix_fmt: yuv420p
[Parsed_scale_0 @ 0x561b96f29340] w:1280 h:720 flags:'bilinear' interl:0
[Parsed_scale_2 @ 0x561b96f31480] w:1280 h:720 flags:'bilinear' interl:0
[graph 0 input from stream 0:0 @ 0x561b96f34680] w:640 h:352 pixfmt:yuv420p tb:1/30000 fr:30000/1001 sar:0/1 sws_param:flags=2
[graph 0 input from stream 1:1 @ 0x561b96f35740] w:1280 h:720 pixfmt:yuv420p tb:1/25000 fr:25/1 sar:1/1 sws_param:flags=2
[graph_0_in_0_1 @ 0x561b96f36700] tb:1/48000 samplefmt:fltp samplerate:48000 chlayout:0x3
[graph_0_in_1_0 @ 0x561b96f37840] tb:1/44100 samplefmt:fltp samplerate:44100 chlayout:0x3
[Parsed_concat_4 @ 0x561b96f32700] auto-inserting filter 'auto_resampler_0' between the filter 'graph_0_in_1_0' and the filter 'Parsed_concat_4'
[Parsed_scale_0 @ 0x561b96f29340] w:640 h:352 fmt:yuv420p sar:0/1 -> w:1280 h:720 fmt:yuv420p sar:0/1 flags:0x2
[Parsed_setsar_1 @ 0x561b96f30fc0] w:1280 h:720 sar:0/1 dar:16/9 -> sar:1/1 dar:16/9
[Parsed_scale_2 @ 0x561b96f31480] w:1280 h:720 fmt:yuv420p sar:1/1 -> w:1280 h:720 fmt:yuv420p sar:1/1 flags:0x2
[Parsed_setsar_3 @ 0x561b96f31840] w:1280 h:720 sar:1/1 dar:16/9 -> sar:1/1 dar:16/9
[auto_resampler_0 @ 0x561b96f32c80] ch:2 chl:stereo fmt:fltp r:44100Hz -> ch:2 chl:stereo fmt:fltp r:48000Hz
[libx264 @ 0x561b960e8400] using SAR=1/1
[libx264 @ 0x561b960e8400] using cpu capabilities: MMX2 SSE2Fast SSSE3 SSE4.2 AVX FMA3 BMI2 AVX2
[libx264 @ 0x561b960e8400] profile High, level 3.1
[libx264 @ 0x561b960e8400] 264 - core 155 r2917 0a84d98 - H.264/MPEG-4 AVC codec - Copyleft 2003-2018 - http://www.videolan.org/x264.html - options: cabac=1 ref=1 deblock=1:0:0 analyse=0x3:0x113 me=hex subme=2 psy=1 psy_rd=1.00:0.00 mixed_ref=0 me_range=16 chroma_me=1 trellis=0 8x8dct=1 cqm=0 deadzone=21,11 fast_pskip=1 chroma_qp_offset=0 threads=22 lookahead_threads=5 sliced_threads=0 nr=0 decimate=1 interlaced=0 bluray_compat=0 constrained_intra=0 bframes=3 b_pyramid=2 b_adapt=1 b_bias=0 direct=1 weightb=1 open_gop=0 weightp=1 keyint=250 keyint_min=25 scenecut=40 intra_refresh=0 rc_lookahead=10 rc=crf mbtree=1 crf=18.0 qcomp=0.60 qpmin=0 qpmax=69 qpstep=4 ip_ratio=1.40 aq=1:1.00
Output #0, mp4, to '/var/www/html/project/media/video/watermarks/WhatsApp_Video_2022-08-09_at_20.52.33_upFmSb5.mp4':
  Metadata:
    major_brand     : mp42
    minor_version   : 0
    compatible_brands: mp42isom
    encoder         : Lavf58.29.100
    Stream #0:0: Video: h264 (libx264), 1 reference frame (avc1 / 0x31637661), yuv420p(progressive), 1280x720 [SAR 1:1 DAR 16:9], q=-1--1, 29.97 fps, 30k tbn, 29.97 tbc (default)
    Metadata:
      encoder         : Lavc58.54.100 libx264
    Side data:
      cpb: bitrate max/min/avg: 0/0/0 buffer size: 0 vbv_delay: -1
    Stream #0:1: Audio: aac (LC) (mp4a / 0x6134706D), 48000 Hz, stereo, fltp, delay 1024, 128 kb/s (default)
    Metadata:
      encoder         : Lavc58.54.100 aac
[Parsed_concat_4 @ 0x561b96f32700] EOF on in0:v0, 1 streams left in segment.
[Parsed_concat_4 @ 0x561b96f32700] EOF on in0:a0, 0 streams left in segment.
[Parsed_concat_4 @ 0x561b96f32700] Segment finished at pts=64384000
[Parsed_concat_4 @ 0x561b96f32700] EOF on in1:v0, 1 streams left in segment.
[Parsed_concat_4 @ 0x561b96f32700] EOF on in1:a0, 0 streams left in segment.
[Parsed_concat_4 @ 0x561b96f32700] Segment finished at pts=66402687
No more output streams to write to, finishing.
frame= 1978 fps=202 q=-1.0 Lsize=   71172kB time=00:01:06.41 bitrate=8779.4kbits/s speed=6.79x    
[AVIOContext @ 0x561b9606b180] Statistics: 0 seeks, 20 writeouts
video:70897kB audio:215kB subtitle:0kB other streams:0kB global headers:0kB muxing overhead: 0.084642%
Input file #0 (/var/www/html/project/media/video/original/WhatsApp_Video_2022-08-09_at_20.52.33_upFmSb5.mp4):
  Input stream #0:0 (video): 1928 packets read (14367537 bytes); 1928 frames decoded; 
  Input stream #0:1 (audio): 3018 packets read (2554234 bytes); 3018 frames decoded (3090432 samples); 
  Total: 4946 packets (16921771 bytes) demuxed
Input file #1 (/var/www/html/project/static/images/templates/Codino.mp4):
  Input stream #1:0 (audio): 89 packets read (26579 bytes); 87 frames decoded (89024 samples); 
  Input stream #1:1 (video): 50 packets read (203365 bytes); 50 frames decoded; 
  Total: 139 packets (229944 bytes) demuxed
Output file #0 (/var/www/html/project/media/video/watermarks/WhatsApp_Video_2022-08-09_at_20.52.33_upFmSb5.mp4):
  Output stream #0:0 (video): 1978 frames encoded; 1978 packets muxed (72598339 bytes); 
  Output stream #0:1 (audio): 3113 frames encoded (3187329 samples); 3114 packets muxed (220515 bytes); 
  Total: 5092 packets (72818854 bytes) muxed
[AVIOContext @ 0x561b960b7fc0] Statistics: 2 seeks, 281 writeouts
[libx264 @ 0x561b960e8400] frame I:15    Avg QP:17.24  size: 99959
[libx264 @ 0x561b960e8400] frame P:1730  Avg QP:21.00  size: 38447
[libx264 @ 0x561b960e8400] frame B:233   Avg QP:21.09  size: 19679
[libx264 @ 0x561b960e8400] consecutive B-frames: 82.1%  4.7%  6.2%  7.1%
[libx264 @ 0x561b960e8400] mb I  I16..4: 10.9% 16.9% 72.2%
[libx264 @ 0x561b960e8400] mb P  I16..4:  3.1%  8.3%  5.8%  P16..4: 36.3% 18.9% 17.2%  0.0%  0.0%    skip:10.4%
[libx264 @ 0x561b960e8400] mb B  I16..4:  3.9%  8.0%  2.7%  B16..8: 27.4% 15.0%  3.5%  direct:12.1%  skip:27.5%  L0:50.7% L1:32.7% BI:16.7%
[libx264 @ 0x561b960e8400] 8x8 transform intra:47.6% inter:46.7%
[libx264 @ 0x561b960e8400] coded y,uvDC,uvAC intra: 68.3% 65.8% 23.9% inter: 45.1% 18.2% 1.6%
[libx264 @ 0x561b960e8400] i16 v,h,dc,p: 49% 26% 12% 13%
[libx264 @ 0x561b960e8400] i8 v,h,dc,ddl,ddr,vr,hd,vl,hu: 22% 26% 15%  4%  7%  6%  7%  6%  6%
[libx264 @ 0x561b960e8400] i4 v,h,dc,ddl,ddr,vr,hd,vl,hu: 22% 21% 10%  6%  9%  9%  9%  7%  7%
[libx264 @ 0x561b960e8400] i8c dc,h,v,p: 44% 22% 23% 11%
[libx264 @ 0x561b960e8400] Weighted P-Frames: Y:2.0% UV:0.4%
[libx264 @ 0x561b960e8400] kb/s:8751.15
[aac @ 0x561b960ddd00] Qavg: 54551.578
[AVIOContext @ 0x561b96074080] Statistics: 74524378 bytes read, 1995 seeks
[AVIOContext @ 0x561b9618e940] Statistics: 1530915 bytes read, 42 seeks
